<svg version="1.1" id="Layer_1" xmlns="http://www.w3.org/2000/svg" xmlns:xlink="http://www.w3.org/1999/xlink" x="0px" y="0px"
	 width="100%" viewBox="0 0 114 98" enable-background="new 0 0 114 98" xml:space="preserve">
<path fill="#FDFDFD" opacity="1.000000" stroke="none" 
	d="
M78.000000,99.000000 
	C52.000000,99.000000 26.500000,99.000000 1.000000,99.000000 
	C1.000000,66.333336 1.000000,33.666668 1.000000,1.000000 
	C39.000000,1.000000 77.000000,1.000000 115.000000,1.000000 
	C115.000000,33.666668 115.000000,66.333336 115.000000,99.000000 
	C102.833336,99.000000 90.666664,99.000000 78.000000,99.000000 
M23.769707,76.441010 
	C23.877491,85.128830 22.636320,84.182289 31.435549,84.195831 
	C53.595001,84.229950 75.755234,84.117691 97.913399,84.290588 
	C101.846268,84.321274 103.079445,83.243790 102.997414,79.235809 
	C102.745186,66.911613 102.784081,54.577019 102.986488,42.251003 
	C103.038277,39.097538 101.840363,37.430477 99.265396,36.003830 
	C90.983246,31.415161 82.355774,27.277281 74.678856,21.816473 
	C66.749580,16.176161 59.763214,14.949567 52.291012,21.876207 
	C51.839264,22.294970 51.084740,22.387102 50.343933,22.681805 
	C49.848980,18.477747 48.023262,15.434588 43.416233,15.954740 
	C38.727890,16.484072 37.613892,20.008099 38.102024,24.044899 
	C38.625439,28.373493 37.475517,31.466442 33.074997,32.930122 
	C32.363503,33.166775 31.820011,33.908539 30.407955,35.064011 
	C33.489975,35.064011 35.663921,35.064011 37.842014,35.064011 
	C38.374390,41.050274 39.206429,47.051998 32.790710,51.561100 
	C30.657507,53.060360 29.438950,57.109596 29.361135,60.034534 
	C29.178093,66.914871 29.934582,73.820206 30.318485,80.854218 
	C30.125370,80.843269 28.737883,80.764610 26.866699,80.658539 
	C26.866699,72.964188 26.866699,65.574333 26.866699,58.184486 
	C26.325882,58.063038 25.785065,57.941589 25.244246,57.820141 
	C24.752787,59.200912 23.894247,60.566807 23.837564,61.965202 
	C23.655518,66.456375 23.769758,70.959557 23.769707,76.441010 
M19.827547,58.394791 
	C21.971951,56.859966 24.116356,55.325138 26.637550,53.520634 
	C21.197346,53.496647 19.090582,50.212540 18.325687,45.010693 
	C17.815807,50.384998 15.276763,53.449429 9.478876,54.074894 
	C15.245749,54.570358 17.600510,57.871136 18.649837,62.702091 
	C18.980078,61.512119 19.310318,60.322147 19.827547,58.394791 
M31.568216,40.105820 
	C32.257702,39.952969 32.947189,39.800117 33.636673,39.647266 
	C28.776525,38.449963 26.201874,35.460957 25.433069,30.392839 
	C24.927744,35.742435 21.812252,38.346199 18.537636,38.844582 
	C20.991491,41.395515 23.638849,44.147602 25.513401,46.096317 
	C26.907650,44.589397 28.880896,42.456692 31.568216,40.105820 
z"/>
<path fill="#101010" opacity="1.000000" stroke="none" 
	d="
M23.769703,75.949554 
	C23.769758,70.959557 23.655518,66.456375 23.837564,61.965202 
	C23.894247,60.566807 24.752787,59.200912 25.244246,57.820141 
	C25.785065,57.941589 26.325882,58.063038 26.866699,58.184486 
	C26.866699,65.574333 26.866699,72.964188 26.866699,80.658539 
	C28.737883,80.764610 30.125370,80.843269 30.318485,80.854218 
	C29.934582,73.820206 29.178093,66.914871 29.361135,60.034534 
	C29.438950,57.109596 30.657507,53.060360 32.790710,51.561100 
	C39.206429,47.051998 38.374390,41.050274 37.842014,35.064011 
	C35.663921,35.064011 33.489975,35.064011 30.407955,35.064011 
	C31.820011,33.908539 32.363503,33.166775 33.074997,32.930122 
	C37.475517,31.466442 38.625439,28.373493 38.102024,24.044899 
	C37.613892,20.008099 38.727890,16.484072 43.416233,15.954740 
	C48.023262,15.434588 49.848980,18.477747 50.343933,22.681805 
	C51.084740,22.387102 51.839264,22.294970 52.291012,21.876207 
	C59.763214,14.949567 66.749580,16.176161 74.678856,21.816473 
	C82.355774,27.277281 90.983246,31.415161 99.265396,36.003830 
	C101.840363,37.430477 103.038277,39.097538 102.986488,42.251003 
	C102.784081,54.577019 102.745186,66.911613 102.997414,79.235809 
	C103.079445,83.243790 101.846268,84.321274 97.913399,84.290588 
	C75.755234,84.117691 53.595001,84.229950 31.435549,84.195831 
	C22.636320,84.182289 23.877491,85.128830 23.769703,75.949554 
M57.637215,54.223625 
	C58.125267,60.132771 58.621620,66.041245 59.098560,71.951294 
	C59.437634,76.152946 60.368439,80.582893 65.331879,80.774292 
	C76.579758,81.208023 87.855820,80.910805 99.221832,80.910805 
	C99.221832,67.412804 99.221832,54.475616 99.221832,41.052780 
	C90.765297,41.052780 82.483231,41.052849 74.201164,41.052757 
	C68.875420,41.052700 63.545921,41.158417 58.226852,40.969864 
	C57.051399,40.928196 55.912880,39.844795 54.757351,39.241085 
	C55.964039,38.711655 57.127346,37.973396 58.389545,37.711193 
	C59.665955,37.446045 61.040287,37.652092 62.371723,37.652084 
	C72.579475,37.652027 82.787231,37.652058 92.994987,37.652058 
	C86.125946,32.587803 78.621864,29.023304 72.013725,24.224932 
	C65.606178,19.572212 60.202938,19.669054 54.399788,24.562473 
	C53.044567,25.705240 50.386398,26.581783 50.297951,27.732277 
	C49.852768,33.523376 49.717941,39.396118 50.248886,45.168945 
	C50.406357,46.881134 53.136898,48.313618 54.584652,49.965210 
	C55.561016,51.079048 56.355518,52.352295 57.637215,54.223625 
M46.790630,49.302032 
	C38.778172,48.785000 33.342945,52.587502 32.925659,59.375061 
	C32.640644,64.011055 32.710442,68.689949 32.961288,73.331306 
	C33.170952,77.210732 34.816204,80.237030 39.317303,80.872200 
	C38.718414,76.446434 34.972855,72.277588 39.473793,66.876343 
	C41.580475,72.880608 39.634033,80.863068 48.612129,80.858574 
	C47.655315,76.341293 44.382717,72.307930 48.586811,66.703850 
	C50.840054,72.785362 48.789356,80.881195 56.785130,80.848824 
	C56.423218,74.461250 55.863613,68.420464 55.799004,62.374397 
	C55.733288,56.225109 53.488110,51.783928 46.790630,49.302032 
M41.335922,41.208508 
	C41.407887,42.665237 41.479851,44.121964 41.549740,45.536709 
	C43.453583,45.536709 45.021538,45.536709 46.895435,45.536709 
	C46.895435,37.976128 47.058548,30.690601 46.760109,23.424028 
	C46.699200,21.941017 44.904522,20.529211 43.909069,19.084579 
	C43.060177,20.503639 41.555180,21.888273 41.478596,23.347858 
	C41.183376,28.974342 41.344761,34.624783 41.335922,41.208508 
z"/>
<path fill="#171717" opacity="1.000000" stroke="none" 
	d="
M19.734051,58.763481 
	C19.310318,60.322147 18.980078,61.512119 18.649837,62.702091 
	C17.600510,57.871136 15.245749,54.570358 9.478876,54.074894 
	C15.276763,53.449429 17.815807,50.384998 18.325687,45.010693 
	C19.090582,50.212540 21.197346,53.496647 26.637550,53.520634 
	C24.116356,55.325138 21.971951,56.859966 19.734051,58.763481 
z"/>
<path fill="#161616" opacity="1.000000" stroke="none" 
	d="
M31.211178,40.214905 
	C28.880896,42.456692 26.907650,44.589397 25.513401,46.096317 
	C23.638849,44.147602 20.991491,41.395515 18.537636,38.844582 
	C21.812252,38.346199 24.927744,35.742435 25.433069,30.392839 
	C26.201874,35.460957 28.776525,38.449963 33.636673,39.647266 
	C32.947189,39.800117 32.257702,39.952969 31.211178,40.214905 
z"/>
<path fill="#F7F7F7" opacity="1.000000" stroke="none" 
	d="
M57.434296,53.888931 
	C56.355518,52.352295 55.561016,51.079048 54.584652,49.965210 
	C53.136898,48.313618 50.406357,46.881134 50.248886,45.168945 
	C49.717941,39.396118 49.852768,33.523376 50.297951,27.732277 
	C50.386398,26.581783 53.044567,25.705240 54.399788,24.562473 
	C60.202938,19.669054 65.606178,19.572212 72.013725,24.224932 
	C78.621864,29.023304 86.125946,32.587803 92.994987,37.652058 
	C82.787231,37.652058 72.579475,37.652027 62.371723,37.652084 
	C61.040287,37.652092 59.665955,37.446045 58.389545,37.711193 
	C57.127346,37.973396 55.964039,38.711655 54.757351,39.241085 
	C55.912880,39.844795 57.051399,40.928196 58.226852,40.969864 
	C63.545921,41.158417 68.875420,41.052700 74.201164,41.052757 
	C82.483231,41.052849 90.765297,41.052780 99.221832,41.052780 
	C99.221832,54.475616 99.221832,67.412804 99.221832,80.910805 
	C87.855820,80.910805 76.579758,81.208023 65.331879,80.774292 
	C60.368439,80.582893 59.437634,76.152946 59.098560,71.951294 
	C58.621620,66.041245 58.125267,60.132771 57.434296,53.888931 
M76.872772,49.770615 
	C74.789009,44.432369 70.568169,48.540298 67.329239,47.097878 
	C67.329239,50.669502 67.329239,53.686024 67.329239,56.529640 
	C70.688850,56.529640 73.712852,56.529640 76.874428,56.529640 
	C76.874428,54.307652 76.874428,52.494026 76.872772,49.770615 
M80.751678,52.513752 
	C80.856613,53.920078 80.961548,55.326408 81.063835,56.697262 
	C84.242706,56.697262 86.987198,56.697262 89.789261,56.697262 
	C89.789261,53.457985 89.789261,50.452682 89.789261,47.466286 
	C86.669586,47.466286 83.930756,47.466286 80.985695,47.466286 
	C80.898560,48.993214 80.825111,50.280296 80.751678,52.513752 
M67.027878,63.510372 
	C67.027878,65.598259 67.027878,67.686150 67.027878,69.689919 
	C70.598213,69.689919 73.617653,69.689919 76.616104,69.689919 
	C76.616104,66.575485 76.616104,63.833023 76.616104,60.609421 
	C73.269264,61.595928 69.574371,58.341084 67.027878,63.510372 
M88.369858,70.030899 
	C89.186523,67.097061 90.003189,64.163216 90.904480,60.925377 
	C86.768204,60.925377 83.908035,60.925377 81.135788,60.925377 
	C81.135788,64.128822 81.135788,66.997108 81.135788,70.036552 
	C83.460793,70.036552 85.433594,70.036552 88.369858,70.030899 
z"/>
<path fill="#F7F7F7" opacity="1.000000" stroke="none" 
	d="
M47.159439,49.448051 
	C53.488110,51.783928 55.733288,56.225109 55.799004,62.374397 
	C55.863613,68.420464 56.423218,74.461250 56.785130,80.848824 
	C48.789356,80.881195 50.840054,72.785362 48.586811,66.703850 
	C44.382717,72.307930 47.655315,76.341293 48.612129,80.858574 
	C39.634033,80.863068 41.580475,72.880608 39.473793,66.876343 
	C34.972855,72.277588 38.718414,76.446434 39.317303,80.872200 
	C34.816204,80.237030 33.170952,77.210732 32.961288,73.331306 
	C32.710442,68.689949 32.640644,64.011055 32.925659,59.375061 
	C33.342945,52.587502 38.778172,48.785000 47.159439,49.448051 
z"/>
<path fill="#E1E1E1" opacity="1.000000" stroke="none" 
	d="
M41.335930,40.737404 
	C41.344761,34.624783 41.183376,28.974342 41.478596,23.347858 
	C41.555180,21.888273 43.060177,20.503639 43.909069,19.084579 
	C44.904522,20.529211 46.699200,21.941017 46.760109,23.424028 
	C47.058548,30.690601 46.895435,37.976128 46.895435,45.536709 
	C45.021538,45.536709 43.453583,45.536709 41.549740,45.536709 
	C41.479851,44.121964 41.407887,42.665237 41.335930,40.737404 
z"/>
<path fill="#131313" opacity="1.000000" stroke="none" 
	d="
M76.873596,50.225510 
	C76.874428,52.494026 76.874428,54.307652 76.874428,56.529640 
	C73.712852,56.529640 70.688850,56.529640 67.329239,56.529640 
	C67.329239,53.686024 67.329239,50.669502 67.329239,47.097878 
	C70.568169,48.540298 74.789009,44.432369 76.873596,50.225510 
z"/>
<path fill="#0C0C0C" opacity="1.000000" stroke="none" 
	d="
M80.751663,52.040565 
	C80.825111,50.280296 80.898560,48.993214 80.985695,47.466286 
	C83.930756,47.466286 86.669586,47.466286 89.789261,47.466286 
	C89.789261,50.452682 89.789261,53.457985 89.789261,56.697262 
	C86.987198,56.697262 84.242706,56.697262 81.063835,56.697262 
	C80.961548,55.326408 80.856613,53.920078 80.751663,52.040565 
z"/>
<path fill="#090909" opacity="1.000000" stroke="none" 
	d="
M67.029732,63.026344 
	C69.574371,58.341084 73.269264,61.595928 76.616104,60.609421 
	C76.616104,63.833023 76.616104,66.575485 76.616104,69.689919 
	C73.617653,69.689919 70.598213,69.689919 67.027878,69.689919 
	C67.027878,67.686150 67.027878,65.598259 67.029732,63.026344 
z"/>
<path fill="#010101" opacity="1.000000" stroke="none" 
	d="
M87.888130,70.033722 
	C85.433594,70.036552 83.460793,70.036552 81.135788,70.036552 
	C81.135788,66.997108 81.135788,64.128822 81.135788,60.925377 
	C83.908035,60.925377 86.768204,60.925377 90.904480,60.925377 
	C90.003189,64.163216 89.186523,67.097061 87.888130,70.033722 
z"/>
</svg>